HIERARCHY
ROOT Hips
{
	OFFSET 0.000000 8.830580 0.000000
	CHANNELS 6 Xposition Yposition Zposition Zrotation Yrotation Xrotation 
	JOINT Spine
	{
		OFFSET 0.000000 0.010000 0.000000
		CHANNELS 3 Zrotation Yrotation Xrotation
		JOINT Spine1
		{
			OFFSET 0.000000 2.459130 0.000000
			CHANNELS 3 Zrotation Yrotation Xrotation
			JOINT Neck
			{
				OFFSET 0.000000 2.484630 0.000000
				CHANNELS 3 Zrotation Yrotation Xrotation
				JOINT Head_virtual
				{
					OFFSET 0.000000 0.000000 0.000000
					CHANNELS 3 Zrotation Yrotation Xrotation
					JOINT Head
					{
						OFFSET 0.000000 0.927525 0.000000
						CHANNELS 3 Zrotation Yrotation Xrotation
						End Site
						{
							OFFSET 0.000000 0.000000 0.000000
						}
					}
				}
				JOINT LeftUpArm_virtual
				{
					OFFSET 0.000000 0.000000 0.000000
					CHANNELS 3 Zrotation Yrotation Xrotation
					JOINT LeftUpArm
					{
						OFFSET 1.248820 0.000000 0.000000
						CHANNELS 3 Zrotation Yrotation Xrotation
						JOINT LeftForeArm
						{
							OFFSET 2.597580 0.000000 0.000000
							CHANNELS 3 Zrotation Yrotation Xrotation
							JOINT LeftHand
							{
								OFFSET 2.455420 0.000000 0.000000
								CHANNELS 3 Zrotation Yrotation Xrotation
								End Site
								{
									OFFSET 0.000000 0.000000 0.000000
								}
							}
						}
					}
				}
				JOINT RightUpArm_virtual
				{
					OFFSET -0.000000 -0.000000 -0.000000
					CHANNELS 3 Zrotation Yrotation Xrotation
					JOINT RightUpArm
					{
						OFFSET -1.248820 -0.000000 -0.000000
						CHANNELS 3 Zrotation Yrotation Xrotation
						JOINT RightForeArm
						{
							OFFSET -2.597580 -0.000000 -0.000000
							CHANNELS 3 Zrotation Yrotation Xrotation
							JOINT RightHand
							{
								OFFSET -2.455420 -0.000000 -0.000000
								CHANNELS 3 Zrotation Yrotation Xrotation
								End Site
								{
									OFFSET 0.000000 0.000000 0.000000
								}
							}
						}
					}
				}
			}
		}
	}
	JOINT LeftUpLeg
	{
		OFFSET 1.271939 0.000000 0.000000
		CHANNELS 3 Zrotation Yrotation Xrotation
		JOINT LeftLowLeg
		{
			OFFSET 0.000000 -4.342910 0.000000
			CHANNELS 3 Zrotation Yrotation Xrotation
			JOINT LeftFoot
			{
				OFFSET 0.000000 -4.487670 0.000000
				CHANNELS 3 Zrotation Yrotation Xrotation
				JOINT LeftToeBase
				{
					OFFSET 0.000000 0.000000 1.515070
					CHANNELS 3 Zrotation Yrotation Xrotation
					End Site
					{
						OFFSET 0.000000 0.000000 0.000000
					}
				}
			}
		}
	}
	JOINT RightUpLeg
	{
		OFFSET -1.271939 0.000000 0.000000
		CHANNELS 3 Zrotation Yrotation Xrotation
		JOINT RightLowLeg
		{
			OFFSET 0.000000 -4.342910 0.000000
			CHANNELS 3 Zrotation Yrotation Xrotation
			JOINT RightFoot
			{
				OFFSET 0.000000 -4.487670 0.000000
				CHANNELS 3 Zrotation Yrotation Xrotation
				JOINT RightToeBase
				{
					OFFSET 0.000000 0.000000 1.515070
					CHANNELS 3 Zrotation Yrotation Xrotation
					End Site
					{
						OFFSET 0.000000 0.000000 0.000000
					}
				}
			}
		}
	}
}
MOTION
Frames: 11
Frame Time: 0.041667
-17.541410 9.150325 43.580782 -174.667776 7.867506 -172.779780 3.947332 1.409186 -6.919043 2.308459 1.697829 -11.279717 0.000000 0.000000 0.000000 -19.626938 11.592143 27.733902 8.509231 24.838373 -80.531527 -23.180799 7.292690 -8.980860 10.497900 -13.978300 -29.097000 0.000000 -7.384920 0.000000 58.100399 -9.085990 11.523300 19.233601 -4.101260 -7.549290 -7.380810 3.521450 -43.938702 0.000000 17.411900 0.000000 -39.850201 -2.761390 42.247299 2.506576 1.084470 -6.195844 0.000000 0.000000 6.654220 -16.516282 14.218118 -1.070598 0.000000 0.000000 -29.967800 7.941487 3.130295 -6.229271 0.000000 0.000000 8.073740 7.729824 -16.461261 7.155483 0.000000 0.000000 -34.476101 
-17.540925 9.150519 43.579925 -174.678107 7.788732 -172.768693 3.993964 1.429987 -6.937821 2.213074 1.711342 -11.233675 0.000000 0.000000 0.000000 -19.860702 12.147467 27.422135 8.340729 24.840285 -80.675773 -23.118200 7.334560 -8.932200 10.451400 -14.181900 -28.160200 0.000000 -7.186670 0.000000 58.553799 -9.931300 11.448700 19.256901 -4.096830 -7.470410 -7.435300 3.561140 -43.713001 0.000000 17.398701 0.000000 -39.616402 -3.218400 43.674900 2.507555 1.026254 -6.204659 0.000000 0.000000 6.630850 -16.524128 14.200311 -1.050090 0.000000 0.000000 -29.949700 7.936255 3.151008 -6.230066 0.000000 0.000000 8.065690 7.745628 -16.527862 7.136906 0.000000 0.000000 -34.455299 
-17.540218 9.150751 43.579496 -174.694544 7.710204 -172.757173 4.019996 1.457073 -6.964633 2.152955 1.733518 -11.166776 0.000000 0.000000 0.000000 -20.069911 12.501527 27.178148 8.278306 24.749884 -80.788024 -23.075600 7.337690 -8.881220 10.430200 -14.402600 -27.431601 0.000000 -6.912350 0.000000 58.790298 -10.719000 11.360500 19.240999 -4.027580 -7.394870 -7.467870 3.521470 -43.441898 0.000000 17.368401 0.000000 -39.308701 -3.613920 44.201000 2.502123 1.000875 -6.225054 0.000000 0.000000 6.619140 -16.506897 14.160197 -1.007928 0.000000 0.000000 -29.934100 7.927870 3.160318 -6.247459 0.000000 0.000000 8.079000 7.766303 -16.587326 7.109270 0.000000 0.000000 -34.394300 
-17.539461 9.150899 43.579437 -174.706040 7.617178 -172.765092 4.041265 1.468686 -6.958627 2.118226 1.741058 -11.125001 0.000000 0.000000 0.000000 -20.252396 12.700459 27.011142 8.199045 24.620232 -80.912905 -22.993700 7.330400 -8.959620 10.285100 -14.556400 -26.800800 0.000000 -6.802900 0.000000 58.816101 -11.365900 11.545900 19.229700 -4.005740 -7.297660 -7.479090 3.577650 -43.172501 0.000000 17.394800 0.000000 -39.075802 -4.214900 44.376598 2.503059 0.968516 -6.238075 0.000000 0.000000 6.624240 -16.491732 14.117056 -0.970513 0.000000 0.000000 -29.970600 7.926451 3.178039 -6.246445 0.000000 0.000000 8.092340 7.805217 -16.667807 7.083042 0.000000 0.000000 -34.434700 
-17.539149 9.150883 43.579554 -174.709177 7.508220 -172.787192 4.067254 1.474815 -6.922385 2.090201 1.742612 -11.106302 0.000000 0.000000 0.000000 -20.365146 12.715850 26.893144 8.100972 24.478140 -81.017166 -22.958500 7.303760 -8.798270 10.271200 -14.641200 -26.493999 0.000000 -6.753800 0.000000 58.743099 -11.597800 11.567100 19.223101 -4.006010 -7.322840 -7.473740 3.630720 -42.795700 0.000000 17.454100 0.000000 -38.867599 -4.577660 45.095100 2.509868 0.929838 -6.248346 0.000000 0.000000 6.645980 -16.477470 14.064050 -0.948329 0.000000 0.000000 -29.971400 7.932249 3.170501 -6.233669 0.000000 0.000000 8.107210 7.827395 -16.741625 7.060132 0.000000 0.000000 -34.464399 
-17.538739 9.150582 43.579599 -174.715873 7.394363 -172.808492 4.047482 1.467376 -6.894842 2.138145 1.736942 -11.081156 0.000000 0.000000 0.000000 -20.433761 12.591320 26.837278 8.017000 24.312764 -81.095079 -22.947700 7.256590 -8.738020 10.232300 -14.674800 -26.192900 0.000000 -6.787520 0.000000 58.436199 -11.564200 12.006100 19.184900 -3.994080 -7.269720 -7.441270 3.728740 -42.639099 0.000000 17.536900 0.000000 -38.551800 -5.060410 45.454498 2.522288 0.773733 -6.252692 0.000000 0.000000 6.654010 -16.491210 14.101993 -0.961581 0.000000 0.000000 -29.967600 7.936732 3.181150 -6.221825 0.000000 0.000000 8.127800 7.870568 -16.831328 7.008579 0.000000 0.000000 -34.438000 
-17.538099 9.150517 43.579443 -174.734212 7.262312 -172.833478 4.032860 1.452911 -6.865718 2.117385 1.725414 -11.068882 0.000000 0.000000 0.000000 -20.422950 12.389462 26.805101 7.996027 24.207448 -81.165961 -22.947300 7.179830 -8.720080 10.249900 -14.723900 -26.091700 0.000000 -6.827360 0.000000 58.208401 -11.365400 12.370000 19.193600 -3.993090 -7.207360 -7.378260 3.803200 -42.762001 0.000000 17.649700 0.000000 -38.098301 -5.335580 46.006699 2.516063 0.747868 -6.279867 0.000000 0.000000 6.702760 -16.467167 14.019632 -0.928561 0.000000 0.000000 -29.984800 7.932275 3.171617 -6.210130 0.000000 0.000000 8.161720 7.904274 -16.906603 6.940122 0.000000 0.000000 -34.327700 
-17.537309 9.150284 43.579478 -174.749446 7.139360 -172.864850 4.030245 1.451422 -6.803213 2.077711 1.726190 -11.105404 0.000000 0.000000 0.000000 -20.386618 12.160672 26.783311 8.077972 24.096388 -81.164030 -22.918100 7.090360 -8.657620 10.234400 -14.740800 -26.029200 0.000000 -6.879590 0.000000 58.188202 -11.096100 12.496100 19.194799 -3.974460 -7.166000 -7.305340 3.843340 -42.618000 0.000000 17.702700 0.000000 -38.008999 -5.644870 46.341499 2.515712 0.699035 -6.294780 0.000000 0.000000 6.743940 -16.468324 13.958708 -0.909973 0.000000 0.000000 -30.009100 7.932599 3.175120 -6.194697 0.000000 0.000000 8.191220 7.970271 -17.002922 6.875338 0.000000 0.000000 -34.327000 
-17.536358 9.150170 43.579109 -174.759755 7.021993 -172.894520 4.020913 1.450257 -6.751443 2.049861 1.727005 -11.090402 0.000000 0.000000 0.000000 -20.303288 11.899655 26.855644 8.026771 24.068862 -81.184591 -22.891001 7.061520 -8.637190 10.185900 -14.834100 -26.125299 0.000000 -6.900240 0.000000 58.292999 -11.049600 12.641300 19.193899 -3.989090 -7.201710 -7.207520 3.957860 -42.568901 0.000000 17.729700 0.000000 -38.033401 -5.944670 46.623402 2.523149 0.631965 -6.293994 0.000000 0.000000 6.761670 -16.479678 13.908264 -0.896382 0.000000 0.000000 -30.018100 7.935767 3.183675 -6.165783 0.000000 0.000000 8.195960 7.962378 -17.099784 6.853524 0.000000 0.000000 -34.338900 
-17.535240 9.150032 43.579244 -174.771282 6.892127 -172.906453 3.992795 1.425561 -6.707065 2.050510 1.707624 -11.103594 0.000000 0.000000 0.000000 -20.212972 11.589480 26.835083 8.019969 23.997020 -81.214001 -22.873800 7.037680 -8.585820 10.155300 -14.874900 -26.282801 0.000000 -6.929980 0.000000 58.343101 -11.084900 12.781900 19.187700 -3.976680 -7.204120 -7.134940 4.081840 -42.529301 0.000000 17.682199 0.000000 -37.970901 -6.163490 46.520302 2.524075 0.663434 -6.332706 0.000000 0.000000 6.807710 -16.459956 13.772127 -0.854159 0.000000 0.000000 -30.041900 7.939895 3.160728 -6.162321 0.000000 0.000000 8.212230 8.034794 -17.161617 6.791639 0.000000 0.000000 -34.288500 
-17.534353 9.149926 43.578322 -174.784172 6.820101 -172.914682 3.955410 1.426312 -6.701386 2.050671 1.714119 -11.065414 0.000000 0.000000 0.000000 -20.035353 11.090877 26.828452 7.929797 23.939511 -81.256985 -22.882299 7.029840 -8.533920 10.169500 -14.926600 -26.307301 0.000000 -6.957340 0.000000 58.344700 -11.091500 12.919700 19.208700 -3.924950 -7.150400 -7.106020 4.142880 -42.629700 0.000000 17.604500 0.000000 -37.838200 -6.222850 46.433701 2.521943 0.644608 -6.320432 0.000000 0.000000 6.781730 -16.455426 13.727543 -0.821364 0.000000 0.000000 -30.061000 7.934155 3.211960 -6.147805 0.000000 0.000000 8.206950 8.000854 -17.270726 6.784465 0.000000 0.000000 -34.317699 
